<svg xmlns="http://www.w3.org/2000/svg" xmlns:xlink="http://www.w3.org/1999/xlink" xmlns:lucid="lucid" width="525" height="412"><g transform="translate(0 0)" lucid:page-tab-id="0_0"><path d="M286.7 46a6 6 0 0 1 6-6H474a6 6 0 0 1 6 6v308a6 6 0 0 1-6 6H292.7a6 6 0 0 1-6-6z" stroke="#232f3e" stroke-width="2" fill="#fff" fill-opacity="0"/><path d="M286.7 40h56v56h-56V40z" stroke="#fff" stroke-opacity="0" fill="#232f3e"/><path d="M327.58 81.22h-25c-4.13.05-7.57-3.1-7.9-7.2v-.64c-.15-3.4 1.97-6.38 5.25-7.36v-.66c.12-4.22 2.44-7.75 6.24-9.57 4.12-1.86 8.73-.96 11.8 2.3 1.1 1.1 1.85 2.2 2.45 3.6 1.2-1 2.72-1.32 4.24-.9 2.24.8 3.68 2.74 3.76 5.1 3.68.65 6.32 3.8 6.28 7.56 0 7.07-7.04 7.73-7.12 7.76zm-26.7-13.88c-2.83.6-4.75 3.14-4.6 6.04v.53c.3 3.33 3.1 5.84 6.4 5.76h24.98c3.04-.3 5.4-2.64 5.68-5.7.28-3.43-2.24-6.5-5.68-6.78-.44-.05-.72-.44-.64-.87.08-1.83-1-3.44-2.72-4.13-1.32-.37-2.64.13-3.44 1.24-.2.25-.44.38-.76.33-.28-.05-.48-.24-.6-.5-.6-1.6-1.4-2.85-2.6-4.04-2.68-2.8-6.6-3.6-10.13-2-3.24 1.6-5.2 4.63-5.32 8.24-.04.4-.04.74 0 1.14.04.4-.2.76-.6.84z" stroke="#fff" stroke-opacity="0" fill="#fff"/><use xlink:href="#a" transform="matrix(1,0,0,1,357.7,60) translate(0 14.4)"/><use xlink:href="#b" transform="matrix(1,0,0,1,357.7,60) translate(55 14.4)"/><path d="M112.18 112.18H47.82V47.82h64.36zm-61.02-3.34h57.68V51.16H51.16z" stroke="#fff" stroke-opacity="0" fill="#d86613"/><path d="M57.02 40h3.33v9.48h-3.33V40zM67.47 40h3.33v9.48h-3.33V40zM77.93 40h3.34v9.48h-3.34V40zM88.4 40h3.33v9.48H88.4V40zM98.87 40h3.33v9.48h-3.33V40zM57.02 110.52h3.33V120h-3.33v-9.48zM67.47 110.52h3.33V120h-3.33v-9.48zM77.93 110.52h3.34V120h-3.34v-9.48zM88.4 110.52h3.33V120H88.4v-9.48zM98.87 110.52h3.33V120h-3.33v-9.48zM110.52 57.42H120v3.33h-9.48v-3.33zM110.52 67.87H120v3.33h-9.48v-3.33zM110.52 78.33H120v3.34h-9.48v-3.34zM110.52 88.8H120v3.33h-9.48V88.8zM110.52 99.25H120v3.33h-9.48v-3.33zM40 57.42h9.48v3.33H40v-3.33zM40 67.87h9.48v3.33H40v-3.33zM40 78.33h9.48v3.34H40v-3.34zM40 88.8h9.48v3.33H40V88.8zM40 99.25h9.48v3.33H40v-3.33z" stroke="#fff" stroke-opacity="0" fill="#d86613"/><use xlink:href="#c" transform="matrix(1,0,0,1,10,129) translate(9.537037037037038 17.77777777777778)"/><use xlink:href="#d" transform="matrix(1,0,0,1,10,129) translate(77.43827160493827 17.77777777777778)"/><path d="M404.97 180h-43.24c-.98 0-1.73-.8-1.73-1.68v-76.64c0-.88.75-1.68 1.73-1.68h43.24c.98 0 1.73.8 1.73 1.68v76.64c0 .88-.75 1.68-1.73 1.68zm-41.56-3.44h39.9v-73.12h-39.9z" stroke="#fff" stroke-opacity="0" fill="#1071e5"/><path d="M368.12 107.98h30.44v3.4h-30.44V108zM368.12 115.97h30.44v3.4h-30.44v-3.4zM368.12 123.93h30.44v3.4h-30.44v-3.4zM368.12 131.9h30.44v3.42h-30.44v-3.4z" stroke="#fff" stroke-opacity="0" fill="#1071e5"/><use xlink:href="#e" transform="matrix(1,0,0,1,330,189) translate(13.407407407407405 17.77777777777778)"/><path d="M404.97 320h-43.24c-.98 0-1.73-.8-1.73-1.68v-76.64c0-.88.75-1.68 1.73-1.68h43.24c.98 0 1.73.8 1.73 1.68v76.64c0 .88-.75 1.68-1.73 1.68zm-41.56-3.44h39.9v-73.12h-39.9z" stroke="#fff" stroke-opacity="0" fill="#232f3e"/><path d="M368.12 247.98h30.44v3.4h-30.44V248zM368.12 255.97h30.44v3.4h-30.44v-3.4zM368.12 263.93h30.44v3.4h-30.44v-3.4zM368.12 271.9h30.44v3.42h-30.44v-3.4z" stroke="#fff" stroke-opacity="0" fill="#232f3e"/><use xlink:href="#f" transform="matrix(1,0,0,1,330,329) translate(-0.17283950617284205 17.77777777777778)"/><path d="M112.18 232.18H47.82v-64.36h64.36zm-61.02-3.34h57.68v-57.68H51.16z" stroke="#fff" stroke-opacity="0" fill="#d86613"/><path d="M57.02 160h3.33v9.48h-3.33V160zM67.47 160h3.33v9.48h-3.33V160zM77.93 160h3.34v9.48h-3.34V160zM88.4 160h3.33v9.48H88.4V160zM98.87 160h3.33v9.48h-3.33V160zM57.02 230.52h3.33V240h-3.33v-9.48zM67.47 230.52h3.33V240h-3.33v-9.48zM77.93 230.52h3.34V240h-3.34v-9.48zM88.4 230.52h3.33V240H88.4v-9.48zM98.87 230.52h3.33V240h-3.33v-9.48zM110.52 177.42H120v3.33h-9.48v-3.33zM110.52 187.87H120v3.33h-9.48v-3.33zM110.52 198.33H120v3.34h-9.48v-3.34zM110.52 208.8H120v3.33h-9.48v-3.33zM110.52 219.25H120v3.33h-9.48v-3.33zM40 177.42h9.48v3.33H40v-3.33zM40 187.87h9.48v3.33H40v-3.33zM40 198.33h9.48v3.34H40v-3.34zM40 208.8h9.48v3.33H40v-3.33zM40 219.25h9.48v3.33H40v-3.33z" stroke="#fff" stroke-opacity="0" fill="#d86613"/><use xlink:href="#c" transform="matrix(1,0,0,1,10,249) translate(9.537037037037038 17.77777777777778)"/><use xlink:href="#d" transform="matrix(1,0,0,1,10,249) translate(77.43827160493827 17.77777777777778)"/><path d="M112.18 352.18H47.82v-64.36h64.36zm-61.02-3.34h57.68v-57.68H51.16z" stroke="#fff" stroke-opacity="0" fill="#d86613"/><path d="M57.02 280h3.33v9.48h-3.33V280zM67.47 280h3.33v9.48h-3.33V280zM77.93 280h3.34v9.48h-3.34V280zM88.4 280h3.33v9.48H88.4V280zM98.87 280h3.33v9.48h-3.33V280zM57.02 350.52h3.33V360h-3.33v-9.48zM67.47 350.52h3.33V360h-3.33v-9.48zM77.93 350.52h3.34V360h-3.34v-9.48zM88.4 350.52h3.33V360H88.4v-9.48zM98.87 350.52h3.33V360h-3.33v-9.48zM110.52 297.42H120v3.33h-9.48v-3.33zM110.52 307.87H120v3.33h-9.48v-3.33zM110.52 318.33H120v3.34h-9.48v-3.34zM110.52 328.8H120v3.33h-9.48v-3.33zM110.52 339.25H120v3.33h-9.48v-3.33zM40 297.42h9.48v3.33H40v-3.33zM40 307.87h9.48v3.33H40v-3.33zM40 318.33h9.48v3.34H40v-3.34zM40 328.8h9.48v3.33H40v-3.33zM40 339.25h9.48v3.33H40v-3.33z" stroke="#fff" stroke-opacity="0" fill="#d86613"/><use xlink:href="#c" transform="matrix(1,0,0,1,10,369) translate(9.537037037037038 17.77777777777778)"/><use xlink:href="#d" transform="matrix(1,0,0,1,10,369) translate(77.43827160493827 17.77777777777778)"/><path d="M284.74 200h-75.87a6 6 0 0 1-6-6V86a6 6 0 0 0-6-6H121" stroke="#3a414a" stroke-width="2" fill="none"/><path d="M285.74 201h-1.03v-2h1.04zM121.03 81H120v-2h1.03z" stroke="#3a414a" stroke-width=".05" fill="#3a414a"/><path d="M121 200h163.74" stroke="#3a414a" stroke-width="2" fill="none"/><path d="M121.03 201H120v-2h1.03zM285.74 201h-1.03v-2h1.04z" stroke="#3a414a" stroke-width=".05" fill="#3a414a"/><path d="M121 320h75.87a6 6 0 0 0 6-6V206a6 6 0 0 1 6-6h75.87" stroke="#3a414a" stroke-width="2" fill="none"/><path d="M121.03 321H120v-2h1.03zM285.74 201h-1.03v-2h1.04z" stroke="#3a414a" stroke-width=".05" fill="#3a414a"/><defs><path fill="#232f3e" d="M185-189c-5-48-123-54-124 2 14 75 158 14 163 119 3 78-121 87-175 55-17-10-28-26-33-46l33-7c5 56 141 63 141-1 0-78-155-14-162-118-5-82 145-84 179-34 5 7 8 16 11 25" id="g"/><path fill="#232f3e" d="M205 0l-28-72H64L36 0H1l101-248h38L239 0h-34zm-38-99l-47-123c-12 45-31 82-46 123h93" id="h"/><path fill="#232f3e" d="M143 4C61 4 22-44 18-125c-5-107 100-154 193-111 17 8 29 25 37 43l-32 9c-13-25-37-40-76-40-61 0-88 39-88 99 0 61 29 100 91 101 35 0 62-11 79-27v-45h-74v-28h105v86C228-13 192 4 143 4" id="i"/><path fill="#232f3e" d="M30 0v-248h187v28H63v79h144v27H63v87h162V0H30" id="j"/><g id="a"><use transform="matrix(0.05,0,0,0.05,0,0)" xlink:href="#g"/><use transform="matrix(0.05,0,0,0.05,12,0)" xlink:href="#h"/><use transform="matrix(0.05,0,0,0.05,24,0)" xlink:href="#i"/><use transform="matrix(0.05,0,0,0.05,38,0)" xlink:href="#j"/></g><path fill="#232f3e" d="M212-179c-10-28-35-45-73-45-59 0-87 40-87 99 0 60 29 101 89 101 43 0 62-24 78-52l27 14C228-24 195 4 139 4 59 4 22-46 18-125c-6-104 99-153 187-111 19 9 31 26 39 46" id="k"/><path fill="#232f3e" d="M24 0v-261h32V0H24" id="l"/><path fill="#232f3e" d="M100-194c62-1 85 37 85 99 1 63-27 99-86 99S16-35 15-95c0-66 28-99 85-99zM99-20c44 1 53-31 53-75 0-43-8-75-51-75s-53 32-53 75 10 74 51 75" id="m"/><path fill="#232f3e" d="M84 4C-5 8 30-112 23-190h32v120c0 31 7 50 39 49 72-2 45-101 50-169h31l1 190h-30c-1-10 1-25-2-33-11 22-28 36-60 37" id="n"/><path fill="#232f3e" d="M85-194c31 0 48 13 60 33l-1-100h32l1 261h-30c-2-10 0-23-3-31C134-8 116 4 85 4 32 4 16-35 15-94c0-66 23-100 70-100zm9 24c-40 0-46 34-46 75 0 40 6 74 45 74 42 0 51-32 51-76 0-42-9-74-50-73" id="o"/><g id="b"><use transform="matrix(0.05,0,0,0.05,0,0)" xlink:href="#k"/><use transform="matrix(0.05,0,0,0.05,12.950000000000001,0)" xlink:href="#l"/><use transform="matrix(0.05,0,0,0.05,16.900000000000002,0)" xlink:href="#m"/><use transform="matrix(0.05,0,0,0.05,26.900000000000002,0)" xlink:href="#n"/><use transform="matrix(0.05,0,0,0.05,36.900000000000006,0)" xlink:href="#o"/></g><path fill="#3a414a" d="M185-189c-5-48-123-54-124 2 14 75 158 14 163 119 3 78-121 87-175 55-17-10-28-26-33-46l33-7c5 56 141 63 141-1 0-78-155-14-162-118-5-82 145-84 179-34 5 7 8 16 11 25" id="p"/><path fill="#3a414a" d="M205 0l-28-72H64L36 0H1l101-248h38L239 0h-34zm-38-99l-47-123c-12 45-31 82-46 123h93" id="q"/><path fill="#3a414a" d="M143 4C61 4 22-44 18-125c-5-107 100-154 193-111 17 8 29 25 37 43l-32 9c-13-25-37-40-76-40-61 0-88 39-88 99 0 61 29 100 91 101 35 0 62-11 79-27v-45h-74v-28h105v86C228-13 192 4 143 4" id="r"/><path fill="#3a414a" d="M30 0v-248h187v28H63v79h144v27H63v87h162V0H30" id="s"/><g id="c"><use transform="matrix(0.06172839506172839,0,0,0.06172839506172839,0,0)" xlink:href="#p"/><use transform="matrix(0.06172839506172839,0,0,0.06172839506172839,14.814814814814813,0)" xlink:href="#q"/><use transform="matrix(0.06172839506172839,0,0,0.06172839506172839,29.629629629629626,0)" xlink:href="#r"/><use transform="matrix(0.06172839506172839,0,0,0.06172839506172839,46.913580246913575,0)" xlink:href="#s"/></g><path fill="#3a414a" d="M190 0L58-211 59 0H30v-248h39L202-35l-2-213h31V0h-41" id="t"/><path fill="#3a414a" d="M100-194c62-1 85 37 85 99 1 63-27 99-86 99S16-35 15-95c0-66 28-99 85-99zM99-20c44 1 53-31 53-75 0-43-8-75-51-75s-53 32-53 75 10 74 51 75" id="u"/><path fill="#3a414a" d="M85-194c31 0 48 13 60 33l-1-100h32l1 261h-30c-2-10 0-23-3-31C134-8 116 4 85 4 32 4 16-35 15-94c0-66 23-100 70-100zm9 24c-40 0-46 34-46 75 0 40 6 74 45 74 42 0 51-32 51-76 0-42-9-74-50-73" id="v"/><path fill="#3a414a" d="M100-194c63 0 86 42 84 106H49c0 40 14 67 53 68 26 1 43-12 49-29l28 8c-11 28-37 45-77 45C44 4 14-33 15-96c1-61 26-98 85-98zm52 81c6-60-76-77-97-28-3 7-6 17-6 28h103" id="w"/><g id="d"><use transform="matrix(0.06172839506172839,0,0,0.06172839506172839,0,0)" xlink:href="#t"/><use transform="matrix(0.06172839506172839,0,0,0.06172839506172839,15.987654320987653,0)" xlink:href="#u"/><use transform="matrix(0.06172839506172839,0,0,0.06172839506172839,28.333333333333332,0)" xlink:href="#v"/><use transform="matrix(0.06172839506172839,0,0,0.06172839506172839,40.67901234567901,0)" xlink:href="#w"/></g><path fill="#3a414a" d="M160-131c35 5 61 23 61 61C221 17 115-2 30 0v-248c76 3 177-17 177 60 0 33-19 50-47 57zm-97-11c50-1 110 9 110-42 0-47-63-36-110-37v79zm0 115c55-2 124 14 124-45 0-56-70-42-124-44v89" id="x"/><path fill="#3a414a" d="M106-169C34-169 62-67 57 0H25v-261h32l-1 103c12-21 28-36 61-36 89 0 53 116 60 194h-32v-121c2-32-8-49-39-48" id="y"/><path fill="#3a414a" d="M24-231v-30h32v30H24zM24 0v-190h32V0H24" id="z"/><path fill="#3a414a" d="M108 0H70L1-190h34L89-25l56-165h34" id="A"/><g id="e"><use transform="matrix(0.06172839506172839,0,0,0.06172839506172839,0,0)" xlink:href="#x"/><use transform="matrix(0.06172839506172839,0,0,0.06172839506172839,14.814814814814813,0)" xlink:href="#w"/><use transform="matrix(0.06172839506172839,0,0,0.06172839506172839,27.160493827160494,0)" xlink:href="#w"/><use transform="matrix(0.06172839506172839,0,0,0.06172839506172839,39.50617283950617,0)" xlink:href="#y"/><use transform="matrix(0.06172839506172839,0,0,0.06172839506172839,51.85185185185185,0)" xlink:href="#z"/><use transform="matrix(0.06172839506172839,0,0,0.06172839506172839,56.72839506172839,0)" xlink:href="#A"/><use transform="matrix(0.06172839506172839,0,0,0.06172839506172839,67.8395061728395,0)" xlink:href="#w"/></g><path fill="#3a414a" d="M143 0L79-87 56-68V0H24v-261h32v163l83-92h37l-77 82L181 0h-38" id="B"/><path fill="#3a414a" d="M115-194c55 1 70 41 70 98S169 2 115 4C84 4 66-9 55-30l1 105H24l-1-265h31l2 30c10-21 28-34 59-34zm-8 174c40 0 45-34 45-75s-6-73-45-74c-42 0-51 32-51 76 0 43 10 73 51 73" id="C"/><path fill="#3a414a" d="M114-163C36-179 61-72 57 0H25l-1-190h30c1 12-1 29 2 39 6-27 23-49 58-41v29" id="D"/><g id="f"><use transform="matrix(0.06172839506172839,0,0,0.06172839506172839,0,0)" xlink:href="#x"/><use transform="matrix(0.06172839506172839,0,0,0.06172839506172839,14.814814814814813,0)" xlink:href="#w"/><use transform="matrix(0.06172839506172839,0,0,0.06172839506172839,27.160493827160494,0)" xlink:href="#w"/><use transform="matrix(0.06172839506172839,0,0,0.06172839506172839,39.50617283950617,0)" xlink:href="#B"/><use transform="matrix(0.06172839506172839,0,0,0.06172839506172839,50.61728395061728,0)" xlink:href="#w"/><use transform="matrix(0.06172839506172839,0,0,0.06172839506172839,62.962962962962955,0)" xlink:href="#w"/><use transform="matrix(0.06172839506172839,0,0,0.06172839506172839,75.30864197530863,0)" xlink:href="#C"/><use transform="matrix(0.06172839506172839,0,0,0.06172839506172839,87.65432098765432,0)" xlink:href="#w"/><use transform="matrix(0.06172839506172839,0,0,0.06172839506172839,100,0)" xlink:href="#D"/></g></defs></g></svg>